<svg
    xmlns="http://www.w3.org/2000/svg"
    xmlns:xlink="http://www.w3.org/1999/xlink" viewBox="0 0 364.7 432.7">
    <defs>
        <linearGradient id="grad_29" x1="-26.01" y1="201.58" x2="361.96" y2="105.54" gradientUnits="userSpaceOnUse">
            <stop offset="0" stop-color="#9ac2ff"/>
            <stop offset="0.87" stop-color="#f4abec"/>
        </linearGradient>
    </defs>
    <title>logo_lsgroup</title>
    <g id="Слой_2" data-name="Слой 2">
        <g id="Слой_1-2" data-name="Слой 1">
            <path d="M143.9,320c-62.4-.5-112.3-51.1-112.3-116V30.4C31.6,13.6,17.2,0,0,0,60.8,0,110.8,48.4,110.8,109.2V282.8C110.8,302.9,125.9,319.4,143.9,320Zm209-129.6a117.8,117.8,0,0,0-32.4-36.9L215.9,75.6c-13.6-10.2-20.5-27.3-17.1-43.2A44.2,44.2,0,0,1,210.8,9.7c4-4.5,9.1-7.4,14.2-9.7a98.2,98.2,0,0,0-60.2,28.4c-14.2,14.2-22.7,30.7-24.4,48.9s2.3,34.7,11.4,51.7a112.9,112.9,0,0,0,32.4,37.5l104.6,77.9c13.6,10.2,20.5,27.3,17,43.2a44.1,44.1,0,0,1-11.9,22.7c-4.6,4-9.1,7.4-14.2,9.7a98.2,98.2,0,0,0,60.2-28.4c14.2-14.2,22.2-30.7,24.4-48.9S362,208,352.9,190.4ZM216.5,237.1a39,39,0,0,0-22.3-21.2,45.6,45.6,0,0,0-13.3-2.6c1.1.1-6.6.5-3.3.5h-1.6a40.8,40.8,0,0,0-34.2,25.9c-6.2,17.6-2.6,37.8,9.8,54.9A72.4,72.4,0,0,0,175,314.8a119.1,119.1,0,0,0,11.9,5.2,21.7,21.7,0,0,1-7.2-6.2c-2.6-3.6-3.1-6.7-2.1-9.8,2.1-5.7,9.8-9.3,16.1-11.9l3.6-1.6a37.5,37.5,0,0,0,20.2-22.3A38.2,38.2,0,0,0,216.5,237.1ZM261,78.6a34.9,34.9,0,0,0,24.3,12.9,40.8,40.8,0,0,0,12.1-1c-1,.2,5.5-2,2.7-1.2l1.3-.4a36.5,36.5,0,0,0,23.2-30.6c1.1-16.7-6.9-33.2-21.8-44.9a64.8,64.8,0,0,0-25-11.7A106.6,106.6,0,0,0,266.3,0,19.4,19.4,0,0,1,274,3.6c3.1,2.5,4.3,5,4.2,8C277.8,17,272,22,267.3,25.7l-2.7,2.2a33.5,33.5,0,0,0-12,24.1A34.2,34.2,0,0,0,261,78.6Z" style="fill:url(#grad_29)"/>
            <path d="M73,422a8.6,8.6,0,0,1,2.7-6.5,15.3,15.3,0,0,1,7.6-3.7,4.9,4.9,0,0,1-1.1-3.2,5.1,5.1,0,0,1,1.3-3.4,11.4,11.4,0,0,1-7-10.7,11.1,11.1,0,0,1,3.7-8.5,13.7,13.7,0,0,1,9.7-3.4,14.5,14.5,0,0,1,8.5,2.5h.1l9.6-2.5v3.7l-6.8,1.7a11.7,11.7,0,0,1,2,6.5,11.3,11.3,0,0,1-3.8,8.5,13.8,13.8,0,0,1-9.6,3.4,15.3,15.3,0,0,1-3.4-.3,4.3,4.3,0,0,0-.7,2.5,3.6,3.6,0,0,0,1,2.7h3.1q7.7,0,12.3,2.9a8.9,8.9,0,0,1,4.6,8,8.8,8.8,0,0,1-4.6,7.8q-4.6,2.8-12.3,2.8t-12.3-2.8A8.7,8.7,0,0,1,73,422Zm4,0q0,3.3,3.5,5.2a19.5,19.5,0,0,0,9.4,2,19.4,19.4,0,0,0,9.4-2q3.5-2,3.5-5.2t-3.5-5.3q-3.5-2-9.4-2a19.4,19.4,0,0,0-9.4,2Q76.9,418.7,76.9,422ZM83,388.6a8.2,8.2,0,0,0,0,12,10.7,10.7,0,0,0,13.5,0,7.8,7.8,0,0,0,2.6-6,7.7,7.7,0,0,0-2.7-6,9.5,9.5,0,0,0-6.7-2.4A10,10,0,0,0,83,388.6Z" style="fill:#fff"/>
            <path d="M133.5,417.1h-3.9V383.3h3.9v4.5a10.4,10.4,0,0,1,9.1-5.1,8.8,8.8,0,0,1,5.3,1.3l-1.4,3.7a9.2,9.2,0,0,0-4.7-1.3q-5,0-8.2,5.5Z" style="fill:#fff"/>
            <path d="M184.6,417.8a17.3,17.3,0,0,1-12.7-4.9,18.5,18.5,0,0,1,0-25.2,18.9,18.9,0,0,1,25.5,0,18.5,18.5,0,0,1,0,25.2A17.3,17.3,0,0,1,184.6,417.8Zm0-3.7a12.9,12.9,0,0,0,9.8-3.8,15,15,0,0,0,0-20,13.1,13.1,0,0,0-9.7-3.9,13.2,13.2,0,0,0-9.7,3.9,14.9,14.9,0,0,0,0,20A13.1,13.1,0,0,0,184.6,414.1Z" style="fill:#fff"/>
            <path d="M251.8,383.3h3.9v33.8h-3.9v-5.3a15.8,15.8,0,0,1-5.6,4.3,16.4,16.4,0,0,1-7.2,1.7q-12.9,0-12.9-14.8V383.3h3.9v18.8q0,12,10.4,12a13.5,13.5,0,0,0,6.3-1.7,15.1,15.1,0,0,0,5.1-4.2Z" style="fill:#fff"/>
            <path d="M286.5,432.1h-3.9V383.3h3.9v4.5a15.3,15.3,0,0,1,5.4-3.7,17.5,17.5,0,0,1,6.9-1.5q7.2,0,11.5,4.7t4.3,12.3a18.2,18.2,0,0,1-4.8,13,16.6,16.6,0,0,1-12.5,5.1q-6.8,0-10.8-2.8Zm11.3-45.7a14.6,14.6,0,0,0-6.4,1.5,13.9,13.9,0,0,0-4.9,3.8V411a18.6,18.6,0,0,0,10.5,3.1,12.8,12.8,0,0,0,9.8-4,14.3,14.3,0,0,0,3.8-10.2q0-6.2-3.4-9.9T297.8,386.3Z" style="fill:#fff"/>
        </g>
    </g>
</svg>