<svg width="50" height="50" viewBox="0 0 50 50" fill="none" xmlns="http://www.w3.org/2000/svg">
<path d="M49.8526 31.7696C49.8526 31.0268 49.2642 27.9117 47.5643 24.512C48.0163 18.7023 48.5997 4.45634 44.3884 0.444691C44.004 0.0783893 43.4598 -0.0671358 42.9438 0.0576C37.2948 1.42501 32.6556 5.42534 30.468 10.8235C26.7779 9.95525 23.1915 9.93759 19.5773 10.8125C19.5195 10.8265 16.761 2.39527 7.10423 0.0576C6.58811 -0.0671358 6.04408 0.0785845 5.65962 0.444691C0.646082 5.22086 2.50511 24.3804 2.46763 24.4494C2.46763 24.5797 0.683855 27.44 0.142357 31.8141C-0.400214 35.7811 0.783019 38.5652 0.783019 38.6642C4.02986 47.7038 15.3689 49.9861 25.0001 49.9861C34.6252 49.9861 45.986 47.7001 49.2172 38.6642C49.2172 38.6544 50.4076 35.5806 49.8526 31.7696ZM42.736 3.35441C45.2939 7.55111 44.6853 20.0789 44.6767 20.069C41.5658 16.1768 37.5906 13.3589 33.4588 11.7632C35.2199 7.61963 38.6732 4.62549 42.736 3.35441ZM7.31164 3.35431C11.3786 4.62627 14.8251 7.62324 16.5832 11.7477C12.428 13.3401 8.45505 16.1682 5.35881 20.025C5.22031 15.9099 5.17395 6.85599 7.31164 3.35431ZM40.8107 43.6889C33.0735 47.9446 16.9326 47.9478 9.1895 43.6889C7.28919 42.6435 5.83198 41.3552 4.82375 39.8355H9.38373C10.2461 39.8355 10.9454 39.1364 10.9454 38.2739C10.9454 37.4114 10.2461 36.7122 9.38373 36.7122H3.4622C3.21302 35.6986 3.11279 34.6166 3.14109 33.589H9.38373C10.2461 33.589 10.9454 32.8898 10.9454 32.0273C10.9454 31.1648 10.2461 30.4657 9.38373 30.4657H3.54321C5.13413 23.5429 11.1702 16.6462 19.059 14.1936C31.7013 10.2692 44.0135 19.8326 46.4571 30.4657H40.6166C39.7541 30.4657 39.0549 31.1648 39.0549 32.0273C39.0549 32.8898 39.7541 33.589 40.6166 33.589H46.8592C46.8875 34.6157 46.7875 35.6979 46.5381 36.7122H40.6166C39.7541 36.7122 39.0549 37.4114 39.0549 38.2739C39.0549 39.1364 39.7541 39.8355 40.6166 39.8355H45.1765C44.1682 41.3551 42.711 42.6435 40.8107 43.6889Z" fill="white"/>
</svg>
